<svg width="120" height="120" viewBox="0 0 120 120" fill="none" xmlns="http://www.w3.org/2000/svg">
  <defs>
    <linearGradient id="bunnyGrad" x1="0%" y1="0%" x2="100%" y2="100%">
      <stop offset="0%" style="stop-color:#FFB3E6;stop-opacity:1" />
      <stop offset="100%" style="stop-color:#FF80D0;stop-opacity:1" />
    </linearGradient>
    <radialGradient id="jellyGrad" cx="50%" cy="30%" r="60%">
      <stop offset="0%" style="stop-color:#FF99CC;stop-opacity:0.8" />
      <stop offset="100%" style="stop-color:#FF4DA6;stop-opacity:0.4" />
    </radialGradient>
  </defs>
  
  <!-- Background Circle -->
  <circle cx="60" cy="60" r="58" fill="#E6F3FF" stroke="#FF69B4" stroke-width="2"/>
  
  <!-- Bunny Body -->
  <ellipse cx="60" cy="75" rx="25" ry="30" fill="url(#bunnyGrad)"/>
  
  <!-- Bunny Head -->
  <circle cx="60" cy="45" r="20" fill="url(#bunnyGrad)"/>
  
  <!-- Ears -->
  <ellipse cx="50" cy="25" rx="6" ry="15" fill="url(#bunnyGrad)" transform="rotate(-20 50 25)"/>
  <ellipse cx="70" cy="25" rx="6" ry="15" fill="url(#bunnyGrad)" transform="rotate(20 70 25)"/>
  
  <!-- Inner Ears -->
  <ellipse cx="50" cy="25" rx="3" ry="8" fill="#FFE6F2" transform="rotate(-20 50 25)"/>
  <ellipse cx="70" cy="25" rx="3" ry="8" fill="#FFE6F2" transform="rotate(20 70 25)"/>
  
  <!-- Eyes -->
  <circle cx="53" cy="42" r="4" fill="#000"/>
  <circle cx="67" cy="42" r="4" fill="#000"/>
  <circle cx="54" cy="41" r="1.5" fill="#FFF"/>
  <circle cx="68" cy="41" r="1.5" fill="#FFF"/>
  
  <!-- Nose -->
  <path d="M60 48 L58 52 L62 52 Z" fill="#FF1493"/>
  
  <!-- Mouth -->
  <path d="M60 53 Q55 57 50 55" stroke="#FF1493" stroke-width="2" fill="none"/>
  <path d="M60 53 Q65 57 70 55" stroke="#FF1493" stroke-width="2" fill="none"/>
  
  <!-- Jelly Effect -->
  <ellipse cx="60" cy="45" rx="18" ry="16" fill="url(#jellyGrad)"/>
  <ellipse cx="60" cy="75" rx="22" ry="25" fill="url(#jellyGrad)"/>
  
  <!-- Sparkles -->
  <path d="M25 30 L27 32 L25 34 L23 32 Z" fill="#FFD700"/>
  <path d="M90 50 L92 52 L90 54 L88 52 Z" fill="#FFD700"/>
  <path d="M30 85 L32 87 L30 89 L28 87 Z" fill="#FFD700"/>
  <path d="M85 25 L87 27 L85 29 L83 27 Z" fill="#FFD700"/>
</svg>