<svg width="120" height="120" viewBox="0 0 120 120" fill="none" xmlns="http://www.w3.org/2000/svg">
  <defs>
    <linearGradient id="pepeGrad" x1="0%" y1="0%" x2="100%" y2="100%">
      <stop offset="0%" style="stop-color:#90EE90;stop-opacity:1" />
      <stop offset="100%" style="stop-color:#32CD32;stop-opacity:1" />
    </linearGradient>
    <radialGradient id="eyeGrad" cx="50%" cy="30%" r="50%">
      <stop offset="0%" style="stop-color:#FFFFFF;stop-opacity:1" />
      <stop offset="100%" style="stop-color:#F0F0F0;stop-opacity:1" />
    </radialGradient>
  </defs>
  
  <!-- Background Circle -->
  <circle cx="60" cy="60" r="58" fill="#E8F5E8" stroke="#228B22" stroke-width="2"/>
  
  <!-- Pepe Body -->
  <ellipse cx="60" cy="75" rx="30" ry="25" fill="url(#pepeGrad)"/>
  
  <!-- Pepe Head -->
  <ellipse cx="60" cy="45" rx="25" ry="22" fill="url(#pepeGrad)"/>
  
  <!-- Eyes Base -->
  <ellipse cx="50" cy="40" rx="8" ry="10" fill="url(#eyeGrad)"/>
  <ellipse cx="70" cy="40" rx="8" ry="10" fill="url(#eyeGrad)"/>
  
  <!-- Eye Pupils -->
  <circle cx="50" cy="42" r="4" fill="#000"/>
  <circle cx="70" cy="42" r="4" fill="#000"/>
  
  <!-- Eye Highlights -->
  <circle cx="51" cy="40" r="1.5" fill="#FFF"/>
  <circle cx="71" cy="40" r="1.5" fill="#FFF"/>
  
  <!-- Mouth -->
  <path d="M45 55 Q60 65 75 55" stroke="#228B22" stroke-width="3" fill="none"/>
  
  <!-- Nostils -->
  <ellipse cx="58" cy="50" rx="1" ry="2" fill="#228B22"/>
  <ellipse cx="62" cy="50" rx="1" ry="2" fill="#228B22"/>
  
  <!-- Arms -->
  <ellipse cx="30" cy="70" rx="8" ry="15" fill="url(#pepeGrad)" transform="rotate(-30 30 70)"/>
  <ellipse cx="90" cy="70" rx="8" ry="15" fill="url(#pepeGrad)" transform="rotate(30 90 70)"/>
  
  <!-- Hands -->
  <circle cx="25" cy="80" r="6" fill="url(#pepeGrad)"/>
  <circle cx="95" cy="80" r="6" fill="url(#pepeGrad)"/>
  
  <!-- Plush Stitching -->
  <path d="M35 45 L38 48 M40 50 L43 53 M45 55 L48 58" stroke="#228B22" stroke-width="1" opacity="0.6"/>
  <path d="M75 45 L78 48 M80 50 L83 53 M85 55 L88 58" stroke="#228B22" stroke-width="1" opacity="0.6"/>
  
  <!-- Belly Stitching -->
  <path d="M50 70 L52 72 M54 74 L56 76 M58 78 L60 80 M62 78 L64 76 M66 74 L68 72 M70 70" stroke="#228B22" stroke-width="1" opacity="0.6"/>
  
  <!-- Sparkles -->
  <path d="M20 25 L22 27 L20 29 L18 27 Z" fill="#FFD700"/>
  <path d="M95 30 L97 32 L95 34 L93 32 Z" fill="#FFD700"/>
  <path d="M25 90 L27 92 L25 94 L23 92 Z" fill="#FFD700"/>
  <path d="M90 95 L92 97 L90 99 L88 97 Z" fill="#FFD700"/>
  
  <!-- Rare Gold Outline -->
  <ellipse cx="60" cy="45" rx="25" ry="22" fill="none" stroke="#FFD700" stroke-width="1" opacity="0.7"/>
  <ellipse cx="60" cy="75" rx="30" ry="25" fill="none" stroke="#FFD700" stroke-width="1" opacity="0.7"/>
</svg>