<svg xmlns="http://www.w3.org/2000/svg" viewBox="0 0 245 240">
  <path fill="#5865F2" d="M104.4 104.4c0 7-5.7 12.8-12.8 12.8s-12.8-5.8-12.8-12.8c0-7 5.7-12.8 12.8-12.8s12.8 5.8 12.8 12.8zm61.6 0c0 7-5.7 12.8-12.8 12.8s-12.8-5.8-12.8-12.8c0-7 5.7-12.8 12.8-12.8s12.8 5.8 12.8 12.8z"/>
  <path fill="#5865F2" d="M104.4 0C46.7 0 0 46.7 0 104.4s46.7 104.4 104.4 104.4S208.8 162.2 208.8 104.4 162.1 0 104.4 0zm0 185.3c-44.6 0-80.9-36.3-80.9-80.9s36.3-80.9 80.9-80.9 80.9 36.3 80.9 80.9-36.3 80.9-80.9 80.9z"/>
</svg>