<svg xmlns="http://www.w3.org/2000/svg" viewBox="0 0 48 48">
  <path fill="#5865F2" d="M24 4C12.95 4 4 12.95 4 24s8.95 20 20 20 20-8.95 20-20S35.05 4 24 4z"/>
  <path fill="#fff" d="M33 29.2c-.4-.5-.8-1.1-1.2-1.6.7-.2 1.3-.4 2-.7-2.1 1-4.1 1.6-6.1 2-1.3.2-2.6.3-3.9.3s-2.6-.1-3.9-.3c-2-.3-4-1-6.1-2 .7.2 1.3.5 2 .7-.4.6-.8 1.1-1.2 1.6-2.5-.7-3.9-2.3-4.5-4.4-.1-.3 0-.6.3-.7.4-.1.7-.3 1.1-.4.1 0 .2 0 .3.1.5.2 1 .4 1.5.6.1 0 .2 0 .3 0 0-.1-.1-.1-.1-.2-1.5-2.2-1.3-4.6-1.3-4.6 0-.1.1-.2.2-.3 1.3-.6 2.6-1.1 4-1.5h.2c.1 0 .2 0 .2.1.1.2.3.4.4.6.8 1 1.8 1.6 3 1.9 1.2.3 2.4.3 3.6 0 1.2-.3 2.2-.9 3-1.9.1-.2.3-.4.4-.6 0 0 .1-.1.2-.1h.2c1.4.4 2.7.9 4 1.5.1 0 .2.1.2.3 0 0 .2 2.4-1.3 4.6 0 .1-.1.1-.1.2.1 0 .2 0 .3 0 .5-.2 1-.4 1.5-.6.1 0 .2-.1.3-.1.4.1.7.3 1.1.4.3.1.4.4.3.7-.5 2.1-2 3.7-4.5 4.4z"/>
</svg>