<svg xmlns="http://www.w3.org/2000/svg" viewBox="0 0 48 48">
  <radialGradient id="IGg" cx="19.38" cy="42.035" r="44.767" gradientUnits="userSpaceOnUse">
    <stop offset="0" stop-color="#fd5"/>
    <stop offset=".5" stop-color="#ff543e"/>
    <stop offset="1" stop-color="#c837ab"/>
  </radialGradient>
  <path fill="url(#IGg)" d="M34.6 6H13.4C9 6 6 9 6 13.4v21.2C6 39 9 42 13.4 42h21.2c4.4 0 7.4-3 7.4-7.4V13.4C42 9 39 6 34.6 6zM24 34c-5.5 0-10-4.5-10-10s4.5-10 10-10 10 4.5 10 10-4.5 10-10 10zm11-17c-1.1 0-2-.9-2-2s.9-2 2-2 2 .9 2 2-.9 2-2 2z"/>
  <circle cx="24" cy="24" r="6.5" fill="#fff"/>
</svg>