<svg xmlns="http://www.w3.org/2000/svg" viewBox="0 0 245 256">
  <path fill="#25F4EE" d="M122.9 0h58a78.6 78.6 0 0036.7 65.6 78.5 78.5 0 0044.5 13.7V137a133 133 0 01-82.3-28.4v95.8a124 124 0 01-124 124C25 328 0 303 0 273.7c0-44.4 33.5-80.3 77.5-82.6v61.1a21.5 21.5 0 00-10.6 1.5 21.2 21.2 0 00-12.1 19.3c0 12 9.8 21.7 21.9 21.7a21.5 21.5 0 0015.4-6.2 21.4 21.4 0 006.2-15.5V84.1h47.6a78.6 78.6 0 01-1.6-16V0z"/>
  <path fill="#FE2C55" d="M245 79.3v57.9a133 133 0 01-82.3-28.4v95.8a124 124 0 01-124 124C25 328 0 303 0 273.7c0-29.3 16.3-54.8 40.4-70.1a81.5 81.5 0 00-17.4 50.3c0 44.4 33.5 80.3 77.5 82.6a124 124 0 00124-124V93c12.6 7.3 26.9 11.4 42.5 11.4z"/>
</svg>