<svg xmlns="http://www.w3.org/2000/svg" viewBox="0 0 48 48">
  <path fill="#1DA1F2" d="M42.5 12.2c-1.2.5-2.4.9-3.7 1 1.3-.8 2.3-2 2.8-3.5-1.2.7-2.6 1.2-4 1.5C36.3 9.4 34.6 8.5 32.8 8.5c-3.5 0-6.3 2.9-6.3 6.4 0 .5.1 1 .2 1.5-5.2-.3-9.9-2.8-13-6.6-.5.9-.8 2-0.8 3.1 0 2.2 1.1 4.1 2.8 5.2-1-.1-2-.3-2.8-.8v.1c0 3.1 2.2 5.6 5.1 6.2-.5.1-1 .2-1.6.2-.4 0-.8 0-1.1-.1.8 2.5 3.1 4.4 5.8 4.4-2.1 1.6-4.7 2.5-7.6 2.5H11c2.7 1.8 5.9 2.8 9.4 2.8 11.3 0 17.5-9.5 17.5-17.7 0-.3 0-.6 0-.8 1.2-.9 2.2-2 3-3.3z"/>
</svg>